<svg width="24" height="25" viewBox="0 0 24 25" fill="none" xmlns="http://www.w3.org/2000/svg">
<path d="M24 12.6671C24 12.9323 23.8946 13.1867 23.7071 13.3742C23.5196 13.5618 23.2652 13.6671 23 13.6671H13V23.6671C13 23.9323 12.8946 24.1867 12.7071 24.3742C12.5196 24.5618 12.2652 24.6671 12 24.6671C11.7348 24.6671 11.4804 24.5618 11.2929 24.3742C11.1054 24.1867 11 23.9323 11 23.6671V13.6671H1C0.734784 13.6671 0.48043 13.5618 0.292893 13.3742C0.105357 13.1867 0 12.9323 0 12.6671C0 12.4019 0.105357 12.1475 0.292893 11.96C0.48043 11.7725 0.734784 11.6671 1 11.6671H11V1.66711C11 1.4019 11.1054 1.14754 11.2929 0.960008C11.4804 0.772471 11.7348 0.667114 12 0.667114C12.2652 0.667114 12.5196 0.772471 12.7071 0.960008C12.8946 1.14754 13 1.4019 13 1.66711V11.6671H23C23.2652 11.6671 23.5196 11.7725 23.7071 11.96C23.8946 12.1475 24 12.4019 24 12.6671Z" fill="#DEE7FF"/>
</svg>
