<svg width="24" height="24" viewBox="0 0 24 24" fill="none" xmlns="http://www.w3.org/2000/svg">
<path d="M21.2166 12.4371C21.0296 12.2242 20.9265 11.9505 20.9265 11.6671C20.9265 11.3837 21.0296 11.11 21.2166 10.8971L22.71 9.21711C22.8745 9.03355 22.9767 8.8026 23.0019 8.55737C23.027 8.31214 22.9738 8.06524 22.85 7.85211L20.5166 3.81544C20.394 3.60255 20.2073 3.4338 19.9832 3.33324C19.759 3.23269 19.5089 3.20546 19.2683 3.25544L17.075 3.69878C16.7959 3.75644 16.5054 3.70996 16.2582 3.56811C16.011 3.42626 15.8243 3.19884 15.7333 2.92878L15.0216 0.793776C14.9434 0.562051 14.7943 0.360785 14.5954 0.218424C14.3965 0.0760643 14.1579 -0.000189147 13.9133 0.000442208H9.24665C8.99224 -0.0128368 8.74047 0.057523 8.52981 0.200775C8.31914 0.344028 8.16116 0.552298 8.07998 0.793776L7.42665 2.92878C7.33565 3.19884 7.14895 3.42626 6.90178 3.56811C6.65461 3.70996 6.36407 3.75644 6.08498 3.69878L3.83331 3.25544C3.60529 3.22322 3.37283 3.2592 3.16522 3.35886C2.95761 3.45851 2.78413 3.61738 2.66665 3.81544L0.333314 7.85211C0.206334 8.06287 0.14924 8.30838 0.170194 8.55354C0.191148 8.7987 0.289077 9.03096 0.449981 9.21711L1.93165 10.8971C2.11869 11.11 2.22184 11.3837 2.22184 11.6671C2.22184 11.9505 2.11869 12.2242 1.93165 12.4371L0.449981 14.1171C0.289077 14.3033 0.191148 14.5355 0.170194 14.7807C0.14924 15.0258 0.206334 15.2714 0.333314 15.4821L2.66665 19.5188C2.78926 19.7317 2.97595 19.9004 3.20011 20.001C3.42426 20.1015 3.67444 20.1288 3.91498 20.0788L6.10831 19.6354C6.3874 19.5778 6.67794 19.6243 6.92511 19.7661C7.17228 19.908 7.35898 20.1354 7.44998 20.4054L8.16165 22.5404C8.24282 22.7819 8.40081 22.9902 8.61147 23.1334C8.82214 23.2767 9.0739 23.3471 9.32831 23.3338H13.995C14.2396 23.3344 14.4782 23.2582 14.677 23.1158C14.8759 22.9734 15.025 22.7722 15.1033 22.5404L15.815 20.4054C15.906 20.1354 16.0927 19.908 16.3398 19.7661C16.587 19.6243 16.8776 19.5778 17.1566 19.6354L19.35 20.0788C19.5905 20.1288 19.8407 20.1015 20.0649 20.001C20.289 19.9004 20.4757 19.7317 20.5983 19.5188L22.9316 15.4821C23.0555 15.269 23.1087 15.0221 23.0835 14.7768C23.0584 14.5316 22.9562 14.3007 22.7916 14.1171L21.2166 12.4371ZM19.4783 14.0004L20.4116 15.0504L18.9183 17.6404L17.5416 17.3604C16.7014 17.1887 15.8273 17.3314 15.0853 17.7615C14.3434 18.1917 13.7851 18.8793 13.5166 19.6938L13.0733 21.0004H10.0866L9.66665 19.6704C9.39814 18.8559 8.83993 18.1683 8.09795 17.7382C7.35598 17.3081 6.48191 17.1653 5.64165 17.3371L4.26498 17.6171L2.74831 15.0388L3.68165 13.9888C4.25559 13.3471 4.5729 12.5164 4.5729 11.6554C4.5729 10.7945 4.25559 9.9638 3.68165 9.32211L2.74831 8.27211L4.24165 5.70544L5.61831 5.98544C6.45857 6.1572 7.33265 6.01447 8.07462 5.58434C8.81659 5.15421 9.37481 4.46663 9.64331 3.65211L10.0866 2.33378H13.0733L13.5166 3.66378C13.7851 4.47829 14.3434 5.16588 15.0853 5.59601C15.8273 6.02614 16.7014 6.16887 17.5416 5.99711L18.9183 5.71711L20.4116 8.30711L19.4783 9.35711C18.9108 9.99733 18.5974 10.8232 18.5974 11.6788C18.5974 12.5343 18.9108 13.3602 19.4783 14.0004ZM11.58 7.00044C10.657 7.00044 9.75475 7.27414 8.98732 7.78692C8.21989 8.2997 7.62175 9.02853 7.26854 9.88125C6.91533 10.734 6.82292 11.6723 7.00298 12.5775C7.18305 13.4828 7.6275 14.3143 8.28015 14.9669C8.93279 15.6196 9.76432 16.064 10.6696 16.2441C11.5748 16.4242 12.5131 16.3318 13.3658 15.9785C14.2186 15.6253 14.9474 15.0272 15.4602 14.2598C15.973 13.4923 16.2466 12.5901 16.2466 11.6671C16.2466 10.4294 15.755 9.24245 14.8798 8.36728C14.0046 7.49211 12.8177 7.00044 11.58 7.00044ZM11.58 14.0004C11.1185 14.0004 10.6674 13.8636 10.2836 13.6072C9.89994 13.3508 9.60087 12.9864 9.42426 12.56C9.24766 12.1337 9.20145 11.6645 9.29148 11.2119C9.38151 10.7593 9.60374 10.3435 9.93006 10.0172C10.2564 9.69087 10.6721 9.46864 11.1248 9.37861C11.5774 9.28858 12.0465 9.33479 12.4729 9.51139C12.8993 9.68799 13.2637 9.98706 13.5201 10.3708C13.7765 10.7545 13.9133 11.2056 13.9133 11.6671C13.9133 12.2859 13.6675 12.8794 13.2299 13.317C12.7923 13.7546 12.1988 14.0004 11.58 14.0004Z" fill="#3063F4"/>
</svg>
