<svg width="48" height="48" viewBox="0 0 48 48" fill="none" xmlns="http://www.w3.org/2000/svg">
<path d="M31.7143 22V18.5714H42V22H31.7143ZM19.7143 23.7143C17.8286 23.7143 16.2143 23.0429 14.8714 21.7C13.5286 20.3571 12.8571 18.7429 12.8571 16.8571C12.8571 14.9714 13.5286 13.3571 14.8714 12.0143C16.2143 10.6714 17.8286 10 19.7143 10C21.6 10 23.2143 10.6714 24.5571 12.0143C25.9 13.3571 26.5714 14.9714 26.5714 16.8571C26.5714 18.7429 25.9 20.3571 24.5571 21.7C23.2143 23.0429 21.6 23.7143 19.7143 23.7143ZM6 37.4286V32.6286C6 31.6571 6.25029 30.764 6.75086 29.9491C7.25143 29.1343 7.91543 28.5131 8.74286 28.0857C10.5143 27.2 12.3143 26.5354 14.1429 26.092C15.9714 25.6486 17.8286 25.4274 19.7143 25.4286C21.6 25.4286 23.4571 25.6503 25.2857 26.0937C27.1143 26.5371 28.9143 27.2011 30.6857 28.0857C31.5143 28.5143 32.1789 29.136 32.6794 29.9509C33.18 30.7657 33.4297 31.6583 33.4286 32.6286V37.4286H6ZM9.42857 34H30V32.6286C30 32.3143 29.9211 32.0286 29.7634 31.7714C29.6057 31.5143 29.3989 31.3143 29.1429 31.1714C27.6 30.4 26.0429 29.8217 24.4714 29.4366C22.9 29.0514 21.3143 28.8583 19.7143 28.8571C18.1143 28.8571 16.5286 29.0503 14.9571 29.4366C13.3857 29.8229 11.8286 30.4011 10.2857 31.1714C10.0286 31.3143 9.82114 31.5143 9.66343 31.7714C9.50571 32.0286 9.42743 32.3143 9.42857 32.6286V34ZM19.7143 20.2857C20.6571 20.2857 21.4646 19.9497 22.1366 19.2777C22.8086 18.6057 23.144 17.7989 23.1429 16.8571C23.1429 15.9143 22.8069 15.1069 22.1349 14.4349C21.4629 13.7629 20.656 13.4274 19.7143 13.4286C18.7714 13.4286 17.964 13.7646 17.292 14.4366C16.62 15.1086 16.2846 15.9154 16.2857 16.8571C16.2857 17.8 16.6217 18.6074 17.2937 19.2794C17.9657 19.9514 18.7726 20.2869 19.7143 20.2857Z" fill="black"/>
</svg>
