<svg width="48" height="48" viewBox="0 0 48 48" fill="none" xmlns="http://www.w3.org/2000/svg">
<path d="M24 6C21.6362 6 19.2956 6.46558 17.1117 7.37017C14.9278 8.27475 12.9435 9.60062 11.2721 11.2721C7.89642 14.6477 6 19.2261 6 24C6 28.7739 7.89642 33.3523 11.2721 36.7279C12.9435 38.3994 14.9278 39.7252 17.1117 40.6298C19.2956 41.5344 21.6362 42 24 42C28.7739 42 33.3523 40.1036 36.7279 36.7279C40.1036 33.3523 42 28.7739 42 24C42 21.6362 41.5344 19.2956 40.6298 17.1117C39.7252 14.9278 38.3994 12.9435 36.7279 11.2721C35.0565 9.60062 33.0722 8.27475 30.8883 7.37017C28.7044 6.46558 26.3638 6 24 6ZM15.126 35.304C15.9 33.684 20.616 32.1 24 32.1C27.384 32.1 32.1 33.684 32.874 35.304C30.3529 37.3128 27.2236 38.4046 24 38.4C20.652 38.4 17.574 37.248 15.126 35.304ZM35.448 32.694C32.874 29.562 26.628 28.5 24 28.5C21.372 28.5 15.126 29.562 12.552 32.694C10.6371 30.2003 9.5994 27.1441 9.6 24C9.6 16.062 16.062 9.6 24 9.6C31.938 9.6 38.4 16.062 38.4 24C38.4 27.276 37.284 30.3 35.448 32.694ZM24 13.2C20.508 13.2 17.7 16.008 17.7 19.5C17.7 22.992 20.508 25.8 24 25.8C27.492 25.8 30.3 22.992 30.3 19.5C30.3 16.008 27.492 13.2 24 13.2ZM24 22.2C23.2839 22.2 22.5972 21.9155 22.0908 21.4092C21.5845 20.9028 21.3 20.2161 21.3 19.5C21.3 18.7839 21.5845 18.0972 22.0908 17.5908C22.5972 17.0845 23.2839 16.8 24 16.8C24.7161 16.8 25.4028 17.0845 25.9092 17.5908C26.4155 18.0972 26.7 18.7839 26.7 19.5C26.7 20.2161 26.4155 20.9028 25.9092 21.4092C25.4028 21.9155 24.7161 22.2 24 22.2Z" fill="black"/>
</svg>
