<svg width="24" height="24" viewBox="0 0 24 24" fill="none" xmlns="http://www.w3.org/2000/svg">
<path d="M19 4C19.7956 4 20.5587 4.31607 21.1213 4.87868C21.6839 5.44129 22 6.20435 22 7V17C22 17.7956 21.6839 18.5587 21.1213 19.1213C20.5587 19.6839 19.7956 20 19 20H5C4.20435 20 3.44129 19.6839 2.87868 19.1213C2.31607 18.5587 2 17.7956 2 17V7C2 6.20435 2.31607 5.44129 2.87868 4.87868C3.44129 4.31607 4.20435 4 5 4H19ZM19 6H5C4.73478 6 4.48043 6.10536 4.29289 6.29289C4.10536 6.48043 4 6.73478 4 7V17C4 17.2652 4.10536 17.5196 4.29289 17.7071C4.48043 17.8946 4.73478 18 5 18H19C19.2652 18 19.5196 17.8946 19.7071 17.7071C19.8946 17.5196 20 17.2652 20 17V7C20 6.73478 19.8946 6.48043 19.7071 6.29289C19.5196 6.10536 19.2652 6 19 6ZM10.707 8.293C10.8945 8.48053 10.9998 8.73484 10.9998 9C10.9998 9.26516 10.8945 9.51947 10.707 9.707L7.707 12.707C7.5184 12.8892 7.2658 12.99 7.0036 12.9877C6.7414 12.9854 6.49059 12.8802 6.30518 12.6948C6.11977 12.5094 6.0146 12.2586 6.01233 11.9964C6.01005 11.7342 6.11084 11.4816 6.293 11.293L9.293 8.293C9.48053 8.10553 9.73484 8.00021 10 8.00021C10.2652 8.00021 10.5195 8.10553 10.707 8.293ZM6.293 7.293C6.47296 7.11365 6.71443 7.00953 6.96838 7.00177C7.22233 6.99402 7.46971 7.08322 7.66028 7.25125C7.85084 7.41928 7.97031 7.65355 7.9944 7.90647C8.01849 8.1594 7.94541 8.41201 7.79 8.613L7.707 8.707L6.707 9.707C6.52704 9.88635 6.28557 9.99047 6.03162 9.99823C5.77767 10.006 5.53029 9.91679 5.33972 9.74875C5.14916 9.58072 5.02969 9.34645 5.0056 9.09353C4.98151 8.8406 5.05459 8.58799 5.21 8.387L5.293 8.293L6.293 7.293Z" fill="#83868F"/>
</svg>
