<svg width="24" height="24" viewBox="0 0 24 24" fill="none" xmlns="http://www.w3.org/2000/svg">
<path d="M12 13.5C11.7033 13.5 11.4133 13.412 11.1666 13.2472C10.92 13.0824 10.7277 12.8481 10.6142 12.574C10.5006 12.2999 10.4709 11.9983 10.5288 11.7074C10.5867 11.4164 10.7296 11.1491 10.9393 10.9393C11.1491 10.7296 11.4164 10.5867 11.7074 10.5288C11.9983 10.4709 12.2999 10.5006 12.574 10.6142C12.8481 10.7277 13.0824 10.92 13.2472 11.1666C13.412 11.4133 13.5 11.7033 13.5 12C13.5 12.3978 13.342 12.7794 13.0607 13.0607C12.7794 13.342 12.3978 13.5 12 13.5ZM13.5 5.625C13.5 5.32833 13.412 5.03832 13.2472 4.79165C13.0824 4.54497 12.8481 4.35271 12.574 4.23918C12.2999 4.12565 11.9983 4.09594 11.7074 4.15382C11.4164 4.2117 11.1491 4.35456 10.9393 4.56434C10.7296 4.77412 10.5867 5.04139 10.5288 5.33237C10.4709 5.62334 10.5006 5.92494 10.6142 6.19903C10.7277 6.47311 10.92 6.70738 11.1666 6.87221C11.4133 7.03703 11.7033 7.125 12 7.125C12.3978 7.125 12.7794 6.96697 13.0607 6.68566C13.342 6.40436 13.5 6.02283 13.5 5.625ZM13.5 18.375C13.5 18.0783 13.412 17.7883 13.2472 17.5416C13.0824 17.295 12.8481 17.1027 12.574 16.9892C12.2999 16.8757 11.9983 16.8459 11.7074 16.9038C11.4164 16.9617 11.1491 17.1046 10.9393 17.3143C10.7296 17.5241 10.5867 17.7914 10.5288 18.0824C10.4709 18.3733 10.5006 18.6749 10.6142 18.949C10.7277 19.2231 10.92 19.4574 11.1666 19.6222C11.4133 19.787 11.7033 19.875 12 19.875C12.3978 19.875 12.7794 19.717 13.0607 19.4357C13.342 19.1544 13.5 18.7728 13.5 18.375Z" fill="#83868F"/>
</svg>
