<svg width="64" height="35" viewBox="0 0 64 35" fill="none" xmlns="http://www.w3.org/2000/svg">
<rect x="42.5658" y="0.000305176" width="9.05665" height="34.6668" fill="white"/>
<path fill-rule="evenodd" clip-rule="evenodd" d="M32.5223 29.3663L19.202 13.7711L13.2455 19.072L26.5658 34.6672L26.5661 34.6669L26.5659 34.6671H37.0565L32.5167 29.3712L32.5223 29.3663Z" fill="white"/>
<path fill-rule="evenodd" clip-rule="evenodd" d="M2.27152 25.9303C6.94765 34.1976 17.3042 37.0302 25.4035 32.2571C33.5027 27.484 36.2778 16.9126 31.6016 8.64537C26.9255 0.378098 16.569 -2.45448 8.46971 2.31863C0.370415 7.09174 -2.40461 17.6631 2.27152 25.9303ZM16.9647 26.4809C21.9526 26.4809 25.9961 22.3536 25.9961 17.2623C25.9961 12.1709 21.9526 8.04362 16.9647 8.04362C11.9769 8.04362 7.9334 12.1709 7.9334 17.2623C7.9334 22.3536 11.9769 26.4809 16.9647 26.4809Z" fill="white"/>
<path fill-rule="evenodd" clip-rule="evenodd" d="M24.7833 21.8786C25.5541 20.5211 25.9954 18.9443 25.9954 17.2624C25.9954 15.5754 25.5515 13.9943 24.7764 12.6341H63.9998V21.8786L24.7833 21.8786Z" fill="white"/>
<rect x="42.5658" y="0.000305176" width="9.05665" height="34.6668" fill="#4841E6" fill-opacity="0.5"/>
<path fill-rule="evenodd" clip-rule="evenodd" d="M32.5223 29.3663L19.202 13.7711L13.2455 19.072L26.5658 34.6672L26.5661 34.6669L26.5659 34.6671H37.0565L32.5167 29.3712L32.5223 29.3663Z" fill="#4841E6" fill-opacity="0.5"/>
<path fill-rule="evenodd" clip-rule="evenodd" d="M2.27152 25.9303C6.94765 34.1976 17.3042 37.0302 25.4035 32.2571C33.5027 27.484 36.2778 16.9126 31.6016 8.64537C26.9255 0.378098 16.569 -2.45448 8.46971 2.31863C0.370415 7.09174 -2.40461 17.6631 2.27152 25.9303ZM16.9647 26.4809C21.9526 26.4809 25.9961 22.3536 25.9961 17.2623C25.9961 12.1709 21.9526 8.04362 16.9647 8.04362C11.9769 8.04362 7.9334 12.1709 7.9334 17.2623C7.9334 22.3536 11.9769 26.4809 16.9647 26.4809Z" fill="#3063F4" fill-opacity="0.5"/>
<path fill-rule="evenodd" clip-rule="evenodd" d="M24.7833 21.8786C25.5541 20.5211 25.9954 18.9443 25.9954 17.2624C25.9954 15.5754 25.5515 13.9943 24.7764 12.6341H63.9998V21.8786L24.7833 21.8786Z" fill="#3063F4" fill-opacity="0.5"/>
</svg>
