<svg width="24" height="24" viewBox="0 0 24 24" fill="none" xmlns="http://www.w3.org/2000/svg">
<path d="M8.92309 8.92308C10.8348 8.92308 12.3846 7.37329 12.3846 5.46154C12.3846 3.54978 10.8348 2 8.92309 2C7.01133 2 5.46155 3.54978 5.46155 5.46154C5.46155 7.37329 7.01133 8.92308 8.92309 8.92308Z" stroke="#83868F" stroke-width="2" stroke-linecap="round" stroke-linejoin="round"/>
<path d="M6.61538 20.4615H2V18.1538C2.01225 16.9812 2.3215 15.8308 2.89888 14.8101C3.47626 13.7894 4.30292 12.9317 5.30165 12.3171C6.30038 11.7025 7.4386 11.3511 8.60997 11.2956C9.78135 11.2402 10.9477 11.4825 12 12M22 14.3077L14.7538 21.5538L11.4769 22L11.9385 18.7231L19.1692 11.4769L22 14.3077Z" stroke="#83868F" stroke-width="2" stroke-linecap="round" stroke-linejoin="round"/>
</svg>
