<svg width="32" height="33" viewBox="0 0 32 33" fill="none" xmlns="http://www.w3.org/2000/svg">
<path d="M28 16.6671C28 16.9323 27.8946 17.1867 27.7071 17.3742C27.5196 17.5618 27.2652 17.6671 27 17.6671H17V27.6671C17 27.9323 16.8946 28.1867 16.7071 28.3742C16.5196 28.5618 16.2652 28.6671 16 28.6671C15.7348 28.6671 15.4804 28.5618 15.2929 28.3742C15.1054 28.1867 15 27.9323 15 27.6671V17.6671H5C4.73478 17.6671 4.48043 17.5618 4.29289 17.3742C4.10536 17.1867 4 16.9323 4 16.6671C4 16.4019 4.10536 16.1475 4.29289 15.96C4.48043 15.7725 4.73478 15.6671 5 15.6671H15V5.66711C15 5.4019 15.1054 5.14754 15.2929 4.96001C15.4804 4.77247 15.7348 4.66711 16 4.66711C16.2652 4.66711 16.5196 4.77247 16.7071 4.96001C16.8946 5.14754 17 5.4019 17 5.66711V15.6671H27C27.2652 15.6671 27.5196 15.7725 27.7071 15.96C27.8946 16.1475 28 16.4019 28 16.6671Z" fill="#DEE7FF"/>
</svg>
