<svg width="24" height="24" viewBox="0 0 24 24" fill="none" xmlns="http://www.w3.org/2000/svg">
<path d="M3 19V5C3 4.46957 3.21071 3.96086 3.58579 3.58579C3.96086 3.21071 4.46957 3 5 3H19C19.5304 3 20.0391 3.21071 20.4142 3.58579C20.7893 3.96086 21 4.46957 21 5V19C21 19.5304 20.7893 20.0391 20.4142 20.4142C20.0391 20.7893 19.5304 21 19 21H5C4.46957 21 3.96086 20.7893 3.58579 20.4142C3.21071 20.0391 3 19.5304 3 19Z" stroke="black" stroke-width="1.5"/>
<path d="M13.856 13.85C14.1837 13.5334 14.445 13.1547 14.6247 12.7359C14.8043 12.3172 14.8987 11.8668 14.9023 11.4112C14.9059 10.9555 14.8187 10.5037 14.6457 10.0822C14.4727 9.66066 14.2175 9.27782 13.8949 8.95605C13.5722 8.63429 13.1887 8.38005 12.7667 8.2082C12.3447 8.03635 11.8927 7.95033 11.437 7.95516C10.9814 7.96 10.5313 8.0556 10.1131 8.23637C9.69479 8.41714 9.31676 8.67946 9.00103 9.008C8.37851 9.65578 8.03509 10.522 8.04463 11.4204C8.05416 12.3187 8.41589 13.1775 9.05202 13.8119C9.68814 14.4463 10.5478 14.8057 11.4462 14.8129C12.3446 14.82 13.2099 14.4742 13.856 13.85ZM13.856 13.85L16 16" stroke="black" stroke-width="1.5" stroke-linecap="round" stroke-linejoin="round"/>
</svg>
