<svg width="24" height="24" viewBox="0 0 24 24" fill="none" xmlns="http://www.w3.org/2000/svg">
<path d="M18 9.5C18.002 8.97569 17.8385 8.46411 17.5329 8.03808C17.2273 7.61205 16.7951 7.29326 16.2978 7.12709C15.8005 6.96093 15.2635 6.95584 14.7631 7.11256C14.2628 7.26929 13.8246 7.57983 13.511 8H10.49C10.1237 7.52715 9.59633 7.20556 9.00825 7.09652C8.42017 6.98748 7.81252 7.0986 7.30109 7.40872C6.78966 7.71883 6.41019 8.20626 6.23499 8.77813C6.05979 9.35 6.1011 9.96634 6.35106 10.5097C6.60101 11.0531 7.04213 11.4855 7.59037 11.7246C8.13861 11.9637 8.75565 11.9927 9.32392 11.8062C9.89219 11.6196 10.372 11.2305 10.6718 10.713C10.9717 10.1955 11.0707 9.5858 10.95 9H13.051C12.9815 9.3423 12.9845 9.69536 13.0598 10.0364C13.1351 10.3775 13.281 10.699 13.4882 10.9802C13.6953 11.2614 13.9591 11.4961 14.2625 11.6692C14.5659 11.8422 14.9022 11.9497 15.2498 11.9848C15.5973 12.0199 15.9483 11.9818 16.2802 11.873C16.6121 11.7641 16.9174 11.5869 17.1767 11.3528C17.4359 11.1187 17.6431 10.8329 17.7851 10.5137C17.9271 10.1946 17.9996 9.84928 18 9.5ZM20 5H17V2C17 1.46957 16.7893 0.960859 16.4142 0.585786C16.0391 0.210714 15.5304 0 15 0L9 0C8.46957 0 7.96086 0.210714 7.58579 0.585786C7.21071 0.960859 7 1.46957 7 2V5H4V6H20V5ZM5 17H4C2.93913 17 1.92172 17.4214 1.17157 18.1716C0.421427 18.9217 0 19.9391 0 21L0 24H8L7 23L9 21L5 17ZM20 17H19L15 21L17 23L16 24H24V21C24 19.9391 23.5786 18.9217 22.8284 18.1716C22.0783 17.4214 21.0609 17 20 17ZM11 20H13V24H11V20ZM12 18L11 20H13L12 18Z" fill="black"/>
</svg>
