<svg width="28" height="29" viewBox="0 0 28 29" fill="none" xmlns="http://www.w3.org/2000/svg">
<path d="M23.2166 15.4371C23.0296 15.2242 22.9265 14.9505 22.9265 14.6671C22.9265 14.3837 23.0296 14.11 23.2166 13.8971L24.71 12.2171C24.8745 12.0336 24.9767 11.8026 25.0019 11.5574C25.027 11.3121 24.9738 11.0652 24.85 10.8521L22.5166 6.81544C22.394 6.60255 22.2073 6.4338 21.9832 6.33324C21.759 6.23269 21.5089 6.20546 21.2683 6.25544L19.075 6.69878C18.7959 6.75644 18.5054 6.70996 18.2582 6.56811C18.011 6.42626 17.8243 6.19884 17.7333 5.92878L17.0216 3.79378C16.9434 3.56205 16.7943 3.36078 16.5954 3.21842C16.3965 3.07606 16.1579 2.99981 15.9133 3.00044H11.2466C10.9922 2.98716 10.7405 3.05752 10.5298 3.20078C10.3191 3.34403 10.1612 3.5523 10.08 3.79378L9.42665 5.92878C9.33565 6.19884 9.14895 6.42626 8.90178 6.56811C8.65461 6.70996 8.36407 6.75644 8.08498 6.69878L5.83331 6.25544C5.60529 6.22322 5.37283 6.2592 5.16522 6.35886C4.95761 6.45851 4.78413 6.61738 4.66665 6.81544L2.33331 10.8521C2.20633 11.0629 2.14924 11.3084 2.17019 11.5535C2.19115 11.7987 2.28908 12.031 2.44998 12.2171L3.93165 13.8971C4.11869 14.11 4.22184 14.3837 4.22184 14.6671C4.22184 14.9505 4.11869 15.2242 3.93165 15.4371L2.44998 17.1171C2.28908 17.3033 2.19115 17.5355 2.17019 17.7807C2.14924 18.0258 2.20633 18.2714 2.33331 18.4821L4.66665 22.5188C4.78926 22.7317 4.97595 22.9004 5.20011 23.001C5.42426 23.1015 5.67444 23.1288 5.91498 23.0788L8.10831 22.6354C8.3874 22.5778 8.67794 22.6243 8.92511 22.7661C9.17228 22.908 9.35898 23.1354 9.44998 23.4054L10.1616 25.5404C10.2428 25.7819 10.4008 25.9902 10.6115 26.1334C10.8221 26.2767 11.0739 26.3471 11.3283 26.3338H15.995C16.2396 26.3344 16.4782 26.2582 16.677 26.1158C16.8759 25.9734 17.025 25.7722 17.1033 25.5404L17.815 23.4054C17.906 23.1354 18.0927 22.908 18.3398 22.7661C18.587 22.6243 18.8776 22.5778 19.1566 22.6354L21.35 23.0788C21.5905 23.1288 21.8407 23.1015 22.0649 23.001C22.289 22.9004 22.4757 22.7317 22.5983 22.5188L24.9316 18.4821C25.0555 18.269 25.1087 18.0221 25.0835 17.7768C25.0584 17.5316 24.9562 17.3007 24.7916 17.1171L23.2166 15.4371ZM21.4783 17.0004L22.4116 18.0504L20.9183 20.6404L19.5416 20.3604C18.7014 20.1887 17.8273 20.3314 17.0853 20.7615C16.3434 21.1917 15.7851 21.8793 15.5166 22.6938L15.0733 24.0004H12.0866L11.6666 22.6704C11.3981 21.8559 10.8399 21.1683 10.098 20.7382C9.35598 20.3081 8.4819 20.1653 7.64165 20.3371L6.26498 20.6171L4.74831 18.0388L5.68165 16.9888C6.25559 16.3471 6.5729 15.5164 6.5729 14.6554C6.5729 13.7945 6.25559 12.9638 5.68165 12.3221L4.74831 11.2721L6.24165 8.70544L7.61831 8.98544C8.45857 9.1572 9.33265 9.01447 10.0746 8.58434C10.8166 8.15421 11.3748 7.46663 11.6433 6.65211L12.0866 5.33378H15.0733L15.5166 6.66378C15.7851 7.47829 16.3434 8.16588 17.0853 8.59601C17.8273 9.02614 18.7014 9.16887 19.5416 8.99711L20.9183 8.71711L22.4116 11.3071L21.4783 12.3571C20.9108 12.9973 20.5974 13.8232 20.5974 14.6788C20.5974 15.5343 20.9108 16.3602 21.4783 17.0004ZM13.58 10.0004C12.657 10.0004 11.7547 10.2741 10.9873 10.7869C10.2199 11.2997 9.62175 12.0285 9.26854 12.8813C8.91533 13.734 8.82292 14.6723 9.00298 15.5775C9.18305 16.4828 9.6275 17.3143 10.2801 17.9669C10.9328 18.6196 11.7643 19.064 12.6696 19.2441C13.5748 19.4242 14.5131 19.3318 15.3658 18.9785C16.2186 18.6253 16.9474 18.0272 17.4602 17.2598C17.973 16.4923 18.2466 15.5901 18.2466 14.6671C18.2466 13.4294 17.755 12.2424 16.8798 11.3673C16.0046 10.4921 14.8177 10.0004 13.58 10.0004ZM13.58 17.0004C13.1185 17.0004 12.6674 16.8636 12.2836 16.6072C11.8999 16.3508 11.6009 15.9864 11.4243 15.56C11.2477 15.1337 11.2014 14.6645 11.2915 14.2119C11.3815 13.7593 11.6037 13.3435 11.9301 13.0172C12.2564 12.6909 12.6721 12.4686 13.1248 12.3786C13.5774 12.2886 14.0465 12.3348 14.4729 12.5114C14.8993 12.688 15.2637 12.9871 15.5201 13.3708C15.7765 13.7545 15.9133 14.2056 15.9133 14.6671C15.9133 15.2859 15.6675 15.8794 15.2299 16.317C14.7923 16.7546 14.1988 17.0004 13.58 17.0004Z" fill="#83868F"/>
</svg>
