<svg width="24" height="24" viewBox="0 0 24 24" fill="none" xmlns="http://www.w3.org/2000/svg">
<path d="M21.2167 12.4371C21.0297 12.2242 20.9265 11.9505 20.9265 11.6671C20.9265 11.3837 21.0297 11.11 21.2167 10.8971L22.71 9.21711C22.8746 9.03356 22.9768 8.8026 23.0019 8.55737C23.0271 8.31214 22.9739 8.06524 22.85 7.85211L20.5167 3.81544C20.3941 3.60255 20.2074 3.4338 19.9832 3.33324C19.7591 3.23269 19.5089 3.20546 19.2684 3.25544L17.075 3.69878C16.796 3.75644 16.5054 3.70996 16.2582 3.56811C16.0111 3.42626 15.8244 3.19884 15.7334 2.92878L15.0217 0.793776C14.9434 0.562051 14.7943 0.360785 14.5954 0.218424C14.3966 0.0760643 14.158 -0.000189147 13.9134 0.000442208H9.24671C8.9923 -0.0128368 8.74053 0.057523 8.52987 0.200775C8.3192 0.344028 8.16122 0.552298 8.08004 0.793776L7.42671 2.92878C7.33571 3.19884 7.14901 3.42626 6.90184 3.56811C6.65467 3.70996 6.36413 3.75644 6.08504 3.69878L3.83338 3.25544C3.60535 3.22322 3.37289 3.2592 3.16528 3.35886C2.95767 3.45851 2.78419 3.61738 2.66671 3.81544L0.333375 7.85211C0.206395 8.06287 0.149301 8.30838 0.170255 8.55354C0.191209 8.7987 0.289138 9.03096 0.450042 9.21711L1.93171 10.8971C2.11875 11.11 2.2219 11.3837 2.2219 11.6671C2.2219 11.9505 2.11875 12.2242 1.93171 12.4371L0.450042 14.1171C0.289138 14.3033 0.191209 14.5355 0.170255 14.7807C0.149301 15.0258 0.206395 15.2714 0.333375 15.4821L2.66671 19.5188C2.78932 19.7317 2.97601 19.9004 3.20017 20.001C3.42432 20.1015 3.6745 20.1288 3.91504 20.0788L6.10837 19.6354C6.38746 19.5778 6.678 19.6243 6.92517 19.7661C7.17234 19.908 7.35904 20.1354 7.45004 20.4054L8.16171 22.5404C8.24288 22.7819 8.40087 22.9902 8.61153 23.1334C8.8222 23.2767 9.07397 23.3471 9.32837 23.3338H13.995C14.2396 23.3344 14.4782 23.2582 14.6771 23.1158C14.876 22.9734 15.0251 22.7722 15.1034 22.5404L15.815 20.4054C15.906 20.1354 16.0927 19.908 16.3399 19.7661C16.5871 19.6243 16.8776 19.5778 17.1567 19.6354L19.35 20.0788C19.5906 20.1288 19.8408 20.1015 20.0649 20.001C20.2891 19.9004 20.4758 19.7317 20.5984 19.5188L22.9317 15.4821C23.0556 15.269 23.1087 15.0221 23.0836 14.7768C23.0584 14.5316 22.9563 14.3007 22.7917 14.1171L21.2167 12.4371ZM19.4784 14.0004L20.4117 15.0504L18.9184 17.6404L17.5417 17.3604C16.7015 17.1887 15.8274 17.3314 15.0854 17.7615C14.3434 18.1917 13.7852 18.8793 13.5167 19.6938L13.0734 21.0004H10.0867L9.66671 19.6704C9.39821 18.8559 8.83999 18.1683 8.09801 17.7382C7.35604 17.3081 6.48197 17.1653 5.64171 17.3371L4.26504 17.6171L2.74838 15.0388L3.68171 13.9888C4.25566 13.3471 4.57296 12.5164 4.57296 11.6554C4.57296 10.7945 4.25566 9.9638 3.68171 9.32211L2.74838 8.27211L4.24171 5.70544L5.61837 5.98544C6.45863 6.1572 7.33271 6.01447 8.07468 5.58434C8.81665 5.15421 9.37487 4.46663 9.64337 3.65211L10.0867 2.33378H13.0734L13.5167 3.66378C13.7852 4.47829 14.3434 5.16588 15.0854 5.59601C15.8274 6.02614 16.7015 6.16887 17.5417 5.99711L18.9184 5.71711L20.4117 8.30711L19.4784 9.35711C18.9109 9.99733 18.5975 10.8232 18.5975 11.6788C18.5975 12.5343 18.9109 13.3602 19.4784 14.0004ZM11.58 7.00044C10.6571 7.00044 9.75481 7.27414 8.98738 7.78692C8.21995 8.2997 7.62181 9.02853 7.2686 9.88125C6.91539 10.734 6.82298 11.6723 7.00304 12.5775C7.18311 13.4828 7.62756 14.3143 8.28021 14.9669C8.93285 15.6196 9.76438 16.064 10.6696 16.2441C11.5749 16.4242 12.5132 16.3318 13.3659 15.9785C14.2186 15.6253 14.9475 15.0272 15.4602 14.2598C15.973 13.4923 16.2467 12.5901 16.2467 11.6671C16.2467 10.4294 15.755 9.24245 14.8799 8.36728C14.0047 7.49211 12.8177 7.00044 11.58 7.00044ZM11.58 14.0004C11.1186 14.0004 10.6674 13.8636 10.2837 13.6072C9.9 13.3508 9.60093 12.9864 9.42432 12.56C9.24772 12.1337 9.20151 11.6645 9.29154 11.2119C9.38157 10.7593 9.6038 10.3435 9.93013 10.0172C10.2564 9.69087 10.6722 9.46864 11.1248 9.37861C11.5775 9.28858 12.0466 9.33479 12.473 9.51139C12.8993 9.68799 13.2637 9.98706 13.5201 10.3708C13.7765 10.7545 13.9134 11.2056 13.9134 11.6671C13.9134 12.2859 13.6675 12.8794 13.23 13.317C12.7924 13.7546 12.1989 14.0004 11.58 14.0004Z" fill="#3063F4"/>
</svg>
