<svg width="26" height="26" viewBox="0 0 26 26" fill="none" xmlns="http://www.w3.org/2000/svg">
<path fill-rule="evenodd" clip-rule="evenodd" d="M22.5151 21.3303L13.2935 10.5338L9.1698 14.2035L18.3914 25L18.3915 24.9999L18.3915 25H25.6541L22.5113 21.3337L22.5151 21.3303Z" fill="#4841E6" fill-opacity="0.5"/>
<path fill-rule="evenodd" clip-rule="evenodd" d="M1.57257 18.9515C4.80984 24.6749 11.9796 26.6359 17.5868 23.3315C23.1939 20.0271 25.115 12.7086 21.8777 6.98517C18.6405 1.26176 11.4707 -0.699231 5.86356 2.60518C0.256437 5.9096 -1.6647 13.2281 1.57257 18.9515ZM11.7447 19.3327C15.1977 19.3327 17.997 16.4753 17.997 12.9506C17.997 9.42591 15.1977 6.56856 11.7447 6.56856C8.29156 6.56856 5.49228 9.42591 5.49228 12.9506C5.49228 16.4753 8.29156 19.3327 11.7447 19.3327Z" fill="#3063F4" fill-opacity="0.5"/>
</svg>
