<svg width="28" height="29" viewBox="0 0 28 29" fill="none" xmlns="http://www.w3.org/2000/svg">
<path d="M25.4398 12.3822H24.5V12.3338H14V17.0004H20.5935C19.6315 19.717 17.0468 21.6671 14 21.6671C10.1343 21.6671 7.00004 18.5328 7.00004 14.6671C7.00004 10.8013 10.1343 7.66709 14 7.66709C15.7845 7.66709 17.4079 8.34026 18.644 9.43984L21.9439 6.13993C19.8602 4.19801 17.073 3.00043 14 3.00043C7.55712 3.00043 2.33337 8.22418 2.33337 14.6671C2.33337 21.11 7.55712 26.3338 14 26.3338C20.443 26.3338 25.6667 21.11 25.6667 14.6671C25.6667 13.8848 25.5862 13.1213 25.4398 12.3822Z" fill="#FFC107"/>
<path d="M3.67847 9.23684L7.51155 12.0479C8.54872 9.48009 11.0606 7.66709 14 7.66709C15.7844 7.66709 17.4078 8.34026 18.6439 9.43984L21.9438 6.13993C19.8601 4.19801 17.073 3.00043 14 3.00043C9.5188 3.00043 5.63263 5.53034 3.67847 9.23684Z" fill="#FF3D00"/>
<path d="M14 26.3338C17.0135 26.3338 19.7517 25.1805 21.8219 23.3051L18.2111 20.2496C17.0004 21.1703 15.521 21.6683 14 21.6671C10.9655 21.6671 8.38894 19.7322 7.41827 17.0319L3.61377 19.9632C5.5446 23.7414 9.46577 26.3338 14 26.3338Z" fill="#4CAF50"/>
<path d="M25.4397 12.3822H24.5V12.3338H14V17.0004H20.5934C20.1333 18.2933 19.3045 19.4231 18.2093 20.2502L18.2111 20.249L21.8219 23.3045C21.5664 23.5367 25.6667 20.5004 25.6667 14.6671C25.6667 13.8849 25.5862 13.1213 25.4397 12.3822Z" fill="#1976D2"/>
</svg>
