<svg width="28" height="29" viewBox="0 0 28 29" fill="none" xmlns="http://www.w3.org/2000/svg">
<path d="M0 14.667C0 20.3996 3.44719 25.3244 8.37997 27.4896C8.3406 26.512 8.37297 25.3385 8.62366 24.2748C8.89282 23.1384 10.425 16.6464 10.425 16.6464C10.425 16.6464 9.97779 15.7525 9.97779 14.4314C9.97779 12.3567 11.1802 10.8072 12.6777 10.8072C13.9512 10.8072 14.5664 11.7637 14.5664 12.909C14.5664 14.1891 13.7499 16.1039 13.33 17.8773C12.9793 19.3624 14.0746 20.5737 15.5397 20.5737C18.1922 20.5737 19.9787 17.1669 19.9787 13.1304C19.9787 10.0621 17.9121 7.76547 14.1533 7.76547C9.90659 7.76547 7.26099 10.9324 7.26099 14.47C7.26099 15.6897 7.6206 16.5498 8.18387 17.2159C8.44286 17.5218 8.47885 17.6448 8.38511 17.9961C8.31796 18.2537 8.16375 18.8738 8.09987 19.1196C8.00669 19.4742 7.71937 19.6009 7.39891 19.47C5.4429 18.6715 4.53194 16.5294 4.53194 14.1215C4.53194 10.1446 7.88594 5.37602 14.5375 5.37602C19.8825 5.37602 23.4005 9.24385 23.4005 13.3957C23.4005 18.8876 20.3472 22.9905 15.8466 22.9905C14.3352 22.9905 12.9134 22.1735 12.4264 21.2455C12.4264 21.2455 11.6137 24.4711 11.4415 25.0939C11.1447 26.1733 10.5637 27.2522 10.0325 28.093C11.3206 28.4739 12.6569 28.6672 14.0002 28.6671C21.731 28.6671 27.9993 22.3991 27.9993 14.667C27.9993 6.93511 21.731 0.667114 14.0002 0.667114C6.26855 0.667114 0 6.93511 0 14.667Z" fill="#CB1F27"/>
</svg>
