<svg width="28" height="29" viewBox="0 0 28 29" fill="none" xmlns="http://www.w3.org/2000/svg">
<g clip-path="url(#clip0_350_21)">
<path d="M14 0.667114C6.26797 0.667114 0 6.93509 0 14.6671C0 22.3991 6.26797 28.6671 14 28.6671C21.732 28.6671 28 22.3991 28 14.6671C28 6.93509 21.732 0.667114 14 0.667114ZM7.94309 12.346C7.46565 12.3461 6.9989 12.2046 6.60186 11.9395C6.20482 11.6743 5.89534 11.2974 5.71255 10.8563C5.52975 10.4152 5.48186 9.92986 5.57493 9.46158C5.668 8.9933 5.89785 8.56313 6.23541 8.22549C6.57297 7.88784 7.00308 7.65788 7.47134 7.5647C7.9396 7.47151 8.42498 7.51927 8.86609 7.70195C9.3072 7.88464 9.68422 8.19403 9.94949 8.591C10.2148 8.98797 10.3563 9.45468 10.3563 9.93213C10.3562 10.5722 10.1019 11.186 9.64938 11.6386C9.19686 12.0912 8.58313 12.3457 7.94309 12.346ZM14 24.458C13.5227 24.458 13.0561 24.3164 12.6593 24.0513C12.2624 23.7861 11.9531 23.4092 11.7705 22.9682C11.5878 22.5273 11.54 22.042 11.6331 21.5739C11.7262 21.1058 11.9561 20.6758 12.2936 20.3383C12.6311 20.0008 13.0611 19.771 13.5292 19.6778C13.9973 19.5847 14.4825 19.6325 14.9235 19.8152C15.3645 19.9978 15.7414 20.3071 16.0065 20.704C16.2717 21.1008 16.4132 21.5674 16.4132 22.0447C16.4132 22.6848 16.159 23.2986 15.7064 23.7511C15.2539 24.2037 14.64 24.458 14 24.458ZM14 18.4011C13.5227 18.4011 13.0561 18.2595 12.6593 17.9944C12.2624 17.7292 11.9531 17.3523 11.7705 16.9113C11.5878 16.4704 11.54 15.9851 11.6331 15.517C11.7262 15.0489 11.9561 14.6189 12.2936 14.2814C12.6311 13.9439 13.0611 13.7141 13.5292 13.6209C13.9973 13.5278 14.4825 13.5756 14.9235 13.7583C15.3645 13.9409 15.7414 14.2502 16.0065 14.6471C16.2717 15.0439 16.4132 15.5105 16.4132 15.9878C16.4135 16.3049 16.3512 16.6189 16.2301 16.9119C16.1089 17.2049 15.9312 17.4711 15.7071 17.6954C15.483 17.9197 15.2168 18.0976 14.9239 18.219C14.631 18.3404 14.3171 18.4029 14 18.4029V18.4011ZM14 12.3442C13.5226 12.3443 13.0558 12.2028 12.6588 11.9376C12.2617 11.6725 11.9522 11.2955 11.7695 10.8545C11.5867 10.4134 11.5388 9.92803 11.6318 9.45975C11.7249 8.99147 11.9548 8.5613 12.2923 8.22366C12.6299 7.88601 13.06 7.65605 13.5282 7.56287C13.9965 7.46968 14.4819 7.51744 14.923 7.70012C15.3641 7.88281 15.7411 8.1922 16.0064 8.58917C16.2717 8.98614 16.4132 9.45285 16.4132 9.9303C16.4135 10.2474 16.3512 10.5614 16.2301 10.8545C16.1089 11.1475 15.9312 11.4138 15.7071 11.6381C15.483 11.8624 15.2169 12.0404 14.924 12.1619C14.6311 12.2833 14.3171 12.3459 14 12.346V12.3442ZM20.0569 12.3442C19.5795 12.3442 19.1128 12.2026 18.7158 11.9373C18.3189 11.6721 18.0095 11.2951 17.8268 10.854C17.6441 10.413 17.5963 9.92762 17.6894 9.45938C17.7826 8.99113 18.0125 8.56102 18.3501 8.22344C18.6876 7.88586 19.1177 7.65596 19.586 7.56282C20.0542 7.46968 20.5396 7.51748 20.9806 7.70018C21.4217 7.88288 21.7987 8.19227 22.064 8.58923C22.3292 8.98619 22.4708 9.45288 22.4708 9.9303C22.471 10.2474 22.4087 10.5615 22.2875 10.8546C22.1663 11.1477 21.9886 11.414 21.7644 11.6383C21.5402 11.8627 21.2741 12.0406 20.9811 12.1621C20.6881 12.2835 20.3741 12.346 20.0569 12.346V12.3442Z" fill="#EB531F"/>
</g>
<defs>
<clipPath id="clip0_350_21">
<rect width="28" height="28" fill="white" transform="translate(0 0.667114)"/>
</clipPath>
</defs>
</svg>
